<svg id="instagram_10_" data-name="instagram (10)" xmlns="http://www.w3.org/2000/svg" width="59.672" height="58.672" viewBox="0 0 59.672 58.672">
  <g id="Group_7" data-name="Group 7">
    <g id="Group_6" data-name="Group 6">
      <path id="Path_2" data-name="Path 2" d="M41.025,0H18.648A18.5,18.5,0,0,0,0,18.335v22A18.5,18.5,0,0,0,18.648,58.672H41.025A18.5,18.5,0,0,0,59.672,40.337v-22A18.5,18.5,0,0,0,41.025,0ZM54.078,40.337A12.96,12.96,0,0,1,41.025,53.172H18.648A12.96,12.96,0,0,1,5.594,40.337v-22A12.96,12.96,0,0,1,18.648,5.5H41.025A12.96,12.96,0,0,1,54.078,18.335Z" fill="#8f8f8f"/>
    </g>
  </g>
  <g id="Group_9" data-name="Group 9" transform="translate(14.918 14.418)">
    <g id="Group_8" data-name="Group 8">
      <path id="Path_3" data-name="Path 3" d="M142.918,128a14.918,14.918,0,1,0,14.918,14.918A14.919,14.919,0,0,0,142.918,128Zm0,24.242a9.324,9.324,0,1,1,9.324-9.324A9.337,9.337,0,0,1,142.918,152.242Z" transform="translate(-128 -128)" fill="#8f8f8f"/>
    </g>
  </g>
  <g id="Group_11" data-name="Group 11" transform="translate(43.885 11.599)">
    <g id="Group_10" data-name="Group 10">
      <ellipse id="Ellipse_1" data-name="Ellipse 1" cx="1.988" cy="1.988" rx="1.988" ry="1.988" fill="#8f8f8f"/>
    </g>
  </g>
</svg>
