<svg id="place" xmlns="http://www.w3.org/2000/svg" width="124.592" height="154" viewBox="0 0 124.592 154">
  <g id="Group_28" data-name="Group 28">
    <g id="Group_27" data-name="Group 27">
      <path id="Path_7" data-name="Path 7" d="M60.064,26.776a62.18,62.18,0,0,1,102.233,0,62.19,62.19,0,0,1,7.24,57.3,48.976,48.976,0,0,1-9.026,14.9L115.279,152.1a5.38,5.38,0,0,1-8.2,0L61.862,98.991a49.025,49.025,0,0,1-9.025-14.883A62.2,62.2,0,0,1,60.064,26.776Zm2.857,53.561a38.411,38.411,0,0,0,7.1,11.634.194.194,0,0,1,.025.029l41.131,48.311,41.157-48.341A38.434,38.434,0,0,0,159.452,80.3a51.441,51.441,0,0,0-6.013-47.4,51.41,51.41,0,0,0-84.515,0A51.451,51.451,0,0,0,62.921,80.337Z" transform="translate(-48.886 0)" fill="#f334e9"/>
    </g>
  </g>
  <g id="Group_30" data-name="Group 30" transform="translate(23.965 26.373)">
    <g id="Group_29" data-name="Group 29">
      <path id="Path_8" data-name="Path 8" d="M194.083,106.219a38.329,38.329,0,1,1-38.329,38.329A38.373,38.373,0,0,1,194.083,106.219Zm0,62.969a24.64,24.64,0,1,0-24.64-24.64A24.669,24.669,0,0,0,194.083,169.188Z" transform="translate(-155.754 -106.219)" fill="#f334e9"/>
    </g>
  </g>
</svg>
