<svg xmlns="http://www.w3.org/2000/svg" width="73.012" height="58.756" viewBox="0 0 73.012 58.756">
  <path id="twitter_11_" data-name="twitter (11)" d="M27.239,58.756A63.691,63.691,0,0,1,17.563,58,45.894,45.894,0,0,1,4.326,53.264L0,50.939l4.684-1.514c5.12-1.655,8.234-2.682,12.089-4.29a15.9,15.9,0,0,1-8.268-9.419l-1.09-3.252.893.134A16.028,16.028,0,0,1,6.275,30.13a14.959,14.959,0,0,1-2.613-9l.2-2.839,1.728.658A15.716,15.716,0,0,1,4.029,14.63,16.183,16.183,0,0,1,5.809,3.574L7.314.856,9.328,3.234A37.218,37.218,0,0,0,33.337,16.525a13.9,13.9,0,0,1,.872-7.5,14.119,14.119,0,0,1,5.807-6.547A17.677,17.677,0,0,1,50.138.033a16.313,16.313,0,0,1,9.939,4.031,33.764,33.764,0,0,0,3.638-1.194c.8-.3,1.7-.63,2.834-1.014L70.721.442,68,8.081c.179-.015.364-.027.558-.036l4.454-.2L70.38,11.385c-.151.2-.189.26-.243.34-.212.314-.476.705-4.09,5.45a6.612,6.612,0,0,0-1.272,4.358A40.582,40.582,0,0,1,62.487,38.11a29.318,29.318,0,0,1-8.009,11.666,35.62,35.62,0,0,1-16.767,7.971,52.468,52.468,0,0,1-10.472,1.01Zm0,0" transform="translate(0 0)" fill="#8f8f8f"/>
</svg>
